# xmcd
#
# Track frame offsets:
#	150
#	15756
#	33846
#	51845
#	71512
#	89789
#	109565
#	127294
#	144641
#	171353
#	190444
#	209834
#
# Disc length: 2945 seconds
#
# Revision: 1
# Processed by: cddbd v1.5.2PL0 Copyright (c) Steve Scherf et al.
# Submitted via: audiograbber 1.83.01
#
DISCID=b40b7f0c
DTITLE=Various Artist - Street Beats V12 S06 CD1
DYEAR=1900
DGENRE=R&B
TTITLE0=Mya - My Love Is Like ... Wo
TTITLE1=Mary J Blige - Love @ 1st Sight Ft Method Man
TTITLE2=Pharrell - Frontin' Ft Jay-Z
TTITLE3=Monica - So Gone (Remix Ft Busta Rhymes)
TTITLE4=Nas - Get Down
TTITLE5=Joe Budden Ft Busta Rhymes - Fire (Yes, Yes Y'all)
TTITLE6=Sara Devine - Take Me Home
TTITLE7=Will.i.am Ft Phife Dawg - Know What I Mean
TTITLE8=Stanley Clarke - 1, 2, To The Bass (Ft Q-Tip)
TTITLE9=Larry Gold - Nothing Ft Erro
TTITLE10=Sabrina Roberts - I Like Your Style Ft Detin8
TTITLE11=Wayne Marshall - Marshall Town
EXTD=
EXTT0=
EXTT1=
EXTT2=
EXTT3=
EXTT4=
EXTT5=
EXTT6=
EXTT7=
EXTT8=
EXTT9=
EXTT10=
EXTT11=
PLAYORDER=
